<svg xmlns="http://www.w3.org/2000/svg" xmlns:xlink="http://www.w3.org/1999/xlink" width="1024" zoomAndPan="magnify" viewBox="0 0 768 179.999997" height="240" preserveAspectRatio="xMidYMid meet" version="1.0"><path fill="#1c2633" d="M 300.515625 60.867188 L 300.515625 92.175781 L 293.878906 92.175781 L 293.878906 24.011719 L 321.515625 24.011719 L 321.515625 30.125 L 300.515625 30.125 L 300.515625 54.753906 L 320.132812 54.753906 L 320.132812 60.867188 Z M 334.359375 73.273438 L 331.398438 92.175781 L 324.621094 92.175781 L 335.40625 24.011719 L 349.058594 24.011719 L 359.941406 92.175781 L 353.164062 92.175781 L 350.199219 73.273438 Z M 340.417969 30.125 L 337.128906 52.316406 L 334.980469 67.164062 L 349.578125 67.164062 L 347.53125 52.269531 L 344.1875 30.125 Z M 372.828125 66.640625 L 372.828125 92.175781 L 366.191406 92.175781 L 366.191406 24.011719 L 382 24.011719 C 387.664062 24.011719 391.792969 24.933594 394.386719 26.78125 C 396.980469 28.625 398.417969 31.679688 398.699219 35.941406 C 399.019531 39.507812 399.164062 42.773438 399.136719 45.734375 C 399.097656 48.691406 398.953125 51.683594 398.699219 54.710938 C 398.539062 57.601562 397.730469 59.914062 396.269531 61.652344 C 394.804688 63.386719 392.511719 64.667969 389.398438 65.496094 L 401.378906 92.175781 L 394.125 92.175781 L 382.949219 66.640625 Z M 382 30.125 L 372.828125 30.125 L 372.828125 60.527344 L 381.804688 60.527344 C 385.398438 60.527344 387.984375 60.082031 389.558594 59.1875 C 391.136719 58.300781 391.988281 56.917969 392.121094 55.039062 C 392.59375 48.546875 392.59375 42.070312 392.121094 35.613281 C 391.988281 33.734375 391.144531 32.351562 389.582031 31.464844 C 388.027344 30.570312 385.5 30.125 382 30.125 M 414.507812 72.128906 L 414.507812 92.175781 L 407.816406 92.175781 L 407.816406 24.011719 L 419.800781 24.011719 L 424.332031 51.507812 L 427.109375 85.835938 L 428.917969 85.835938 L 431.640625 51.507812 L 436.21875 24.011719 L 448.15625 24.011719 L 448.15625 92.175781 L 441.46875 92.175781 L 441.46875 72.128906 L 442.625 30.125 L 440.5625 30.125 L 435.792969 72.511719 L 432.308594 91.933594 L 423.667969 91.933594 L 420.238281 72.511719 L 415.410156 30.125 L 413.40625 30.125 Z M 485.488281 86.0625 L 485.488281 92.175781 L 456.796875 92.175781 L 456.796875 24.011719 L 485.488281 24.011719 L 485.488281 30.125 L 463.429688 30.125 L 463.429688 54.753906 L 484.007812 54.753906 L 484.007812 60.867188 L 463.429688 60.867188 L 463.429688 86.0625 Z M 498.324219 66.640625 L 498.324219 92.175781 L 491.6875 92.175781 L 491.6875 24.011719 L 507.496094 24.011719 C 513.160156 24.011719 517.289062 24.933594 519.882812 26.78125 C 522.472656 28.625 523.914062 31.679688 524.195312 35.941406 C 524.515625 39.507812 524.660156 42.773438 524.632812 45.734375 C 524.59375 48.691406 524.449219 51.683594 524.195312 54.710938 C 524.035156 57.601562 523.226562 59.914062 521.765625 61.652344 C 520.300781 63.386719 518.007812 64.667969 514.890625 65.496094 L 526.875 92.175781 L 519.621094 92.175781 L 508.445312 66.640625 Z M 507.496094 30.125 L 498.324219 30.125 L 498.324219 60.527344 L 507.300781 60.527344 C 510.894531 60.527344 513.480469 60.082031 515.054688 59.1875 C 516.632812 58.300781 517.484375 56.917969 517.617188 55.039062 C 518.089844 48.546875 518.089844 42.070312 517.617188 35.613281 C 517.484375 33.734375 516.640625 32.351562 515.078125 31.464844 C 513.523438 30.570312 510.996094 30.125 507.496094 30.125 M 540.003906 72.128906 L 540.003906 92.175781 L 533.3125 92.175781 L 533.3125 24.011719 L 545.296875 24.011719 L 549.828125 51.507812 L 552.605469 85.835938 L 554.414062 85.835938 L 557.136719 51.507812 L 561.714844 24.011719 L 573.652344 24.011719 L 573.652344 92.175781 L 566.964844 92.175781 L 566.964844 72.128906 L 568.121094 30.125 L 566.058594 30.125 L 561.289062 72.511719 L 557.804688 91.933594 L 549.164062 91.933594 L 545.734375 72.511719 L 540.90625 30.125 L 538.902344 30.125 Z M 589.546875 73.273438 L 586.585938 92.175781 L 579.808594 92.175781 L 590.59375 24.011719 L 604.253906 24.011719 L 615.136719 92.175781 L 608.359375 92.175781 L 605.398438 73.273438 Z M 595.613281 30.125 L 592.3125 52.316406 L 590.167969 67.164062 L 604.777344 67.164062 L 602.71875 52.269531 L 599.382812 30.125 Z M 628.023438 66.640625 L 628.023438 92.175781 L 621.390625 92.175781 L 621.390625 24.011719 L 637.1875 24.011719 C 642.851562 24.011719 646.980469 24.933594 649.570312 26.78125 C 652.164062 28.625 653.605469 31.679688 653.898438 35.941406 C 654.214844 39.507812 654.359375 42.773438 654.320312 45.734375 C 654.292969 48.691406 654.152344 51.683594 653.898438 54.710938 C 653.738281 57.601562 652.921875 59.914062 651.457031 61.652344 C 649.996094 63.386719 647.707031 64.667969 644.582031 65.496094 L 656.566406 92.175781 L 649.308594 92.175781 L 638.144531 66.640625 Z M 637.1875 30.125 L 628.023438 30.125 L 628.023438 60.527344 L 637 60.527344 C 640.59375 60.527344 643.179688 60.082031 644.757812 59.1875 C 646.332031 58.300781 647.183594 56.917969 647.304688 55.039062 C 647.785156 48.546875 647.785156 42.070312 647.304688 35.613281 C 647.183594 33.734375 646.339844 32.351562 644.777344 31.464844 C 643.21875 30.570312 640.6875 30.125 637.1875 30.125 M 678.765625 30.125 L 678.765625 92.175781 L 672.132812 92.175781 L 672.132812 30.125 L 659.09375 30.125 L 659.09375 24.011719 L 691.839844 24.011719 L 691.839844 30.125 Z M 678.765625 30.125 " fill-opacity="1" fill-rule="nonzero"/><path fill="#0074d9" d="M 298.710938 145.628906 L 309.492188 145.628906 L 309.492188 144.648438 L 304.972656 144.648438 L 304.972656 134.515625 L 312.734375 134.515625 L 312.734375 133.425781 L 304.972656 133.425781 L 304.972656 123.996094 L 311.003906 123.996094 C 312.8125 123.996094 314.105469 125.21875 314.882812 127.65625 C 314.925781 127.804688 314.964844 127.929688 314.992188 128.03125 L 315.523438 129.808594 L 316.273438 129.808594 L 316.085938 123.015625 L 298.710938 123.015625 L 298.710938 123.996094 L 301.730469 123.996094 L 301.730469 144.648438 L 298.710938 144.648438 Z M 331.386719 146.003906 C 333.320312 146.003906 334.386719 144.835938 334.585938 142.496094 C 334.613281 142.351562 334.628906 142.214844 334.628906 142.089844 L 333.648438 142.046875 C 333.472656 143.882812 332.980469 144.8125 332.171875 144.835938 C 331.523438 144.789062 331.1875 144.140625 331.15625 142.882812 L 331.15625 134.921875 C 331.15625 131.335938 329.359375 129.441406 325.765625 129.234375 L 325.09375 129.234375 C 322.277344 129.234375 320.390625 129.890625 319.4375 131.195312 C 319.136719 131.625 318.984375 132.050781 318.984375 132.476562 C 318.984375 133.253906 319.347656 133.707031 320.078125 133.832031 C 320.203125 133.863281 320.328125 133.875 320.453125 133.875 C 321.03125 133.875 321.460938 133.511719 321.742188 132.785156 C 322.09375 131.851562 322.332031 131.296875 322.457031 131.121094 C 322.933594 130.496094 323.675781 130.183594 324.671875 130.183594 C 327.039062 130.328125 328.261719 131.625 328.335938 134.0625 L 328.335938 136.433594 C 322.433594 136.433594 319.050781 137.664062 318.191406 140.128906 C 318.042969 140.605469 317.96875 141.121094 317.96875 141.671875 C 317.96875 143.582031 318.8125 144.890625 320.496094 145.59375 C 321.171875 145.867188 321.886719 146.003906 322.644531 146.003906 C 324.476562 146.003906 326.019531 145.375 327.277344 144.117188 C 327.730469 143.648438 328.070312 143.148438 328.289062 142.617188 C 328.589844 144.851562 329.625 145.980469 331.386719 146.003906 M 323.878906 144.503906 C 322.351562 144.503906 321.410156 143.734375 321.058594 142.199219 C 320.984375 141.847656 320.949219 141.457031 320.949219 141.03125 C 320.949219 139.347656 321.914062 138.28125 323.847656 137.835938 C 324.875 137.605469 326.371094 137.476562 328.335938 137.449219 L 328.335938 140.46875 C 327.960938 142.203125 327.039062 143.421875 325.578125 144.117188 C 325.003906 144.375 324.4375 144.503906 323.878906 144.503906 M 344.386719 144.691406 L 341.675781 144.691406 L 341.675781 137.195312 C 341.675781 134.910156 342.375 133.074219 343.78125 131.691406 C 344.332031 131.164062 344.796875 130.882812 345.179688 130.855469 C 345.605469 130.855469 345.996094 131.171875 346.347656 131.804688 C 346.746094 132.5 347.121094 132.902344 347.472656 133.003906 C 347.628906 133.054688 347.777344 133.082031 347.925781 133.082031 C 348.683594 133.082031 349.160156 132.71875 349.359375 131.992188 C 349.410156 131.835938 349.4375 131.6875 349.4375 131.539062 C 349.4375 130.40625 348.859375 129.714844 347.703125 129.464844 C 347.449219 129.414062 347.207031 129.390625 346.988281 129.390625 C 345.480469 129.390625 344.136719 130.027344 342.953125 131.308594 C 342.402344 131.910156 341.960938 132.589844 341.628906 133.347656 L 341.488281 129.621094 L 336.019531 129.621094 L 336.019531 130.558594 L 338.839844 130.558594 L 338.839844 142.429688 C 338.839844 143.585938 338.515625 144.277344 337.871094 144.503906 C 337.488281 144.628906 336.871094 144.691406 336.019531 144.691406 L 336.019531 145.628906 L 345.324219 145.628906 C 345.324219 145.078125 345.136719 144.777344 344.761719 144.726562 C 344.660156 144.703125 344.535156 144.691406 344.386719 144.691406 M 358.101562 144.691406 L 356.402344 144.691406 L 356.402344 136.542969 C 356.476562 134.339844 357.246094 132.695312 358.707031 131.617188 C 359.382812 131.109375 360.058594 130.855469 360.738281 130.855469 C 361.992188 130.855469 362.859375 131.546875 363.339844 132.929688 C 363.535156 133.53125 363.636719 134.210938 363.636719 134.96875 L 363.636719 142.429688 C 363.636719 143.585938 363.359375 144.277344 362.808594 144.503906 C 362.457031 144.628906 361.855469 144.691406 361 144.691406 L 361 145.628906 L 369.105469 145.628906 C 369.105469 145.078125 368.917969 144.777344 368.542969 144.726562 C 368.4375 144.703125 368.3125 144.691406 368.167969 144.691406 L 366.46875 144.691406 L 366.46875 135.042969 C 366.867188 133.207031 367.753906 131.925781 369.136719 131.195312 C 369.667969 130.945312 370.171875 130.820312 370.648438 130.820312 C 371.933594 130.820312 372.839844 131.488281 373.359375 132.816406 C 373.609375 133.449219 373.734375 134.167969 373.734375 134.96875 L 373.734375 142.429688 C 373.734375 143.585938 373.460938 144.277344 372.90625 144.503906 C 372.554688 144.628906 371.953125 144.691406 371.101562 144.691406 L 371.101562 145.628906 L 379.433594 145.628906 C 379.433594 145.078125 379.242188 144.777344 378.863281 144.726562 C 378.765625 144.703125 378.640625 144.691406 378.488281 144.691406 L 376.570312 144.691406 L 376.570312 135.34375 C 376.570312 132.753906 375.726562 130.945312 374.042969 129.917969 C 373.285156 129.460938 372.472656 129.234375 371.597656 129.234375 C 369.683594 129.234375 368.152344 130.128906 367 131.914062 C 366.699219 132.371094 366.445312 132.847656 366.238281 133.347656 C 365.789062 131.363281 364.796875 130.078125 363.261719 129.5 C 362.8125 129.324219 362.351562 129.234375 361.871094 129.234375 C 360.0625 129.234375 358.566406 130.003906 357.386719 131.539062 C 356.957031 132.089844 356.621094 132.703125 356.371094 133.378906 L 356.214844 129.621094 L 350.757812 129.621094 L 350.757812 130.558594 L 353.582031 130.558594 L 353.582031 142.429688 C 353.582031 143.585938 353.253906 144.277344 352.601562 144.503906 C 352.226562 144.628906 351.613281 144.691406 350.757812 144.691406 L 350.757812 145.628906 L 359.039062 145.628906 C 359.039062 145.097656 358.851562 144.796875 358.476562 144.726562 C 358.351562 144.703125 358.226562 144.691406 358.101562 144.691406 M 388.476562 129.621094 L 388.476562 130.558594 L 391.109375 130.558594 L 391.109375 141.1875 C 391.285156 144.324219 392.730469 145.945312 395.441406 146.046875 C 397.757812 146.046875 399.203125 144.628906 399.777344 141.792969 L 399.777344 141.714844 L 398.761719 141.527344 C 398.136719 143.609375 397.21875 144.734375 396.003906 144.910156 C 394.652344 144.859375 393.960938 143.894531 393.933594 142.011719 L 393.933594 130.558594 L 399.777344 130.558594 L 399.777344 129.621094 L 393.933594 129.621094 L 393.933594 125.242188 L 391.109375 126.039062 L 391.109375 129.621094 Z M 404.683594 137.601562 C 404.683594 133.707031 405.746094 131.332031 407.878906 130.480469 C 408.429688 130.28125 409.007812 130.183594 409.609375 130.183594 C 412.402344 130.183594 414.023438 131.9375 414.472656 135.453125 C 414.554688 136.054688 414.59375 136.71875 414.59375 137.449219 C 414.59375 141.675781 413.4375 144.152344 411.121094 144.878906 C 410.671875 145.003906 410.210938 145.066406 409.730469 145.066406 C 407.1875 145.066406 405.59375 143.558594 404.945312 140.546875 C 404.769531 139.664062 404.683594 138.683594 404.683594 137.601562 M 409.730469 129.234375 C 407.3125 129.234375 405.304688 130.066406 403.699219 131.726562 C 402.214844 133.253906 401.472656 135.164062 401.472656 137.449219 C 401.472656 140.617188 402.632812 142.988281 404.945312 144.570312 C 406.351562 145.527344 407.90625 146.003906 409.609375 146.003906 C 412.019531 146.003906 414.019531 145.152344 415.609375 143.445312 C 417.0625 141.886719 417.789062 139.941406 417.789062 137.601562 C 417.789062 134.433594 416.621094 132.085938 414.285156 130.558594 C 412.902344 129.675781 411.386719 129.234375 409.730469 129.234375 M 432.191406 145.628906 L 442.554688 145.628906 C 442.554688 145.078125 442.351562 144.765625 441.945312 144.691406 C 441.820312 144.664062 441.695312 144.648438 441.570312 144.648438 L 439.003906 144.648438 L 439.003906 123.996094 L 441.195312 123.996094 C 443.226562 123.996094 444.582031 125.230469 445.265625 127.691406 C 445.265625 127.792969 445.277344 127.871094 445.296875 127.921875 L 445.90625 130.449219 L 446.964844 130.449219 L 446.765625 123.015625 L 428.15625 123.015625 L 427.96875 130.449219 L 429.027344 130.449219 L 429.621094 127.921875 C 430.429688 125.460938 431.800781 124.152344 433.734375 123.996094 L 435.761719 123.996094 L 435.761719 144.648438 L 432.191406 144.648438 Z M 463.015625 146.003906 C 464.949219 146.003906 466.015625 144.835938 466.210938 142.496094 C 466.242188 142.351562 466.257812 142.214844 466.257812 142.089844 L 465.277344 142.046875 C 465.097656 143.882812 464.605469 144.8125 463.796875 144.835938 C 463.152344 144.789062 462.8125 144.140625 462.785156 142.882812 L 462.785156 134.921875 C 462.785156 131.335938 460.988281 129.441406 457.394531 129.234375 L 456.71875 129.234375 C 453.90625 129.234375 452.019531 129.890625 451.0625 131.195312 C 450.761719 131.625 450.613281 132.050781 450.613281 132.476562 C 450.613281 133.253906 450.976562 133.707031 451.703125 133.832031 C 451.828125 133.863281 451.953125 133.875 452.078125 133.875 C 452.660156 133.875 453.089844 133.511719 453.367188 132.785156 C 453.714844 131.851562 453.953125 131.296875 454.085938 131.121094 C 454.5625 130.496094 455.300781 130.183594 456.300781 130.183594 C 458.667969 130.328125 459.886719 131.625 459.960938 134.0625 L 459.960938 136.433594 C 454.058594 136.433594 450.679688 137.664062 449.820312 140.128906 C 449.671875 140.605469 449.597656 141.121094 449.597656 141.671875 C 449.597656 143.582031 450.441406 144.890625 452.121094 145.59375 C 452.800781 145.867188 453.515625 146.003906 454.273438 146.003906 C 456.101562 146.003906 457.644531 145.375 458.902344 144.117188 C 459.359375 143.648438 459.695312 143.148438 459.917969 142.617188 C 460.21875 144.851562 461.25 145.980469 463.015625 146.003906 M 455.507812 144.503906 C 453.980469 144.503906 453.039062 143.734375 452.683594 142.199219 C 452.613281 141.847656 452.574219 141.457031 452.574219 141.03125 C 452.574219 139.347656 453.542969 138.28125 455.472656 137.835938 C 456.503906 137.605469 458 137.476562 459.960938 137.449219 L 459.960938 140.46875 C 459.585938 142.203125 458.667969 143.421875 457.207031 144.117188 C 456.632812 144.375 456.066406 144.503906 455.507812 144.503906 M 477.976562 146.003906 C 480.179688 146.003906 482.039062 145.175781 483.542969 143.523438 C 484.957031 141.914062 485.660156 139.878906 485.660156 137.414062 C 485.660156 134.652344 484.90625 132.492188 483.402344 130.933594 C 482.269531 129.800781 480.871094 129.234375 479.210938 129.234375 C 476.476562 129.234375 474.53125 130.464844 473.378906 132.929688 C 473.246094 133.15625 473.144531 133.382812 473.070312 133.613281 L 473.070312 121.140625 L 467.425781 121.140625 L 467.425781 122.078125 L 470.246094 122.078125 L 470.246094 142.429688 C 470.246094 143.585938 469.921875 144.277344 469.265625 144.503906 C 468.890625 144.628906 468.277344 144.691406 467.425781 144.691406 L 467.425781 145.628906 L 472.167969 145.628906 L 472.507812 143.148438 C 473.589844 144.875 475.21875 145.816406 477.402344 145.96875 C 477.609375 145.992188 477.800781 146.003906 477.976562 146.003906 M 478.042969 130.746094 C 480.109375 130.746094 481.453125 132 482.078125 134.515625 C 482.328125 135.441406 482.453125 136.496094 482.453125 137.679688 C 482.453125 141.222656 481.5 143.519531 479.597656 144.570312 C 478.996094 144.902344 478.324219 145.066406 477.589844 145.066406 C 475.707031 145.066406 474.378906 144.058594 473.597656 142.046875 C 473.222656 140.996094 473.039062 139.777344 473.039062 138.394531 C 473.039062 135.351562 473.789062 133.15625 475.296875 131.804688 C 476.097656 131.097656 477.011719 130.746094 478.042969 130.746094 M 496.101562 144.691406 L 494.0625 144.691406 L 494.0625 121.140625 L 488.40625 121.140625 L 488.40625 122.078125 L 491.238281 122.078125 L 491.238281 142.429688 C 491.238281 143.585938 490.914062 144.277344 490.257812 144.503906 C 489.882812 144.628906 489.265625 144.691406 488.40625 144.691406 L 488.40625 145.628906 L 497.039062 145.628906 C 497.039062 145.078125 496.851562 144.777344 496.476562 144.726562 C 496.375 144.703125 496.25 144.691406 496.101562 144.691406 M 507.433594 130.183594 C 509.199219 130.183594 510.367188 130.921875 510.941406 132.398438 C 511.148438 132.875 511.25 133.394531 511.25 133.953125 C 511.25 135.210938 510.648438 135.972656 509.441406 136.246094 C 508.808594 136.371094 507.917969 136.421875 506.761719 136.402344 L 502.773438 136.289062 C 502.898438 133.394531 503.835938 131.507812 505.59375 130.632812 C 506.175781 130.332031 506.789062 130.183594 507.433594 130.183594 M 513.996094 142.011719 L 513.058594 141.671875 C 512.175781 143.582031 510.753906 144.664062 508.792969 144.910156 C 508.542969 144.941406 508.304688 144.957031 508.085938 144.957031 C 505.445312 144.957031 503.785156 143.382812 503.101562 140.238281 C 502.902344 139.363281 502.792969 138.394531 502.773438 137.339844 L 507.292969 137.414062 C 510.355469 137.464844 512.328125 137.175781 513.203125 136.542969 C 513.886719 136.042969 514.226562 135.332031 514.226562 134.40625 C 514.226562 132.691406 513.359375 131.332031 511.625 130.324219 C 510.390625 129.597656 508.972656 129.234375 507.367188 129.234375 C 504.222656 129.234375 501.972656 130.542969 500.621094 133.160156 C 499.917969 134.511719 499.5625 136.042969 499.5625 137.757812 C 499.5625 140.875 500.679688 143.183594 502.914062 144.691406 C 504.246094 145.566406 505.765625 146.003906 507.480469 146.003906 C 510.191406 146.003906 512.1875 145.027344 513.464844 143.070312 C 513.671875 142.71875 513.847656 142.367188 513.996094 142.011719 M 521.304688 144.238281 C 521.304688 142.878906 520.804688 142.074219 519.804688 141.824219 C 519.597656 141.773438 519.410156 141.746094 519.230469 141.746094 C 518.429688 141.746094 517.878906 142.125 517.578125 142.882812 C 517.476562 143.132812 517.421875 143.382812 517.421875 143.632812 C 517.421875 144.433594 517.828125 144.984375 518.636719 145.285156 C 518.761719 145.316406 518.859375 145.34375 518.933594 145.363281 C 519.484375 145.519531 519.777344 145.730469 519.804688 146.003906 C 519.777344 146.6875 519.222656 147.589844 518.140625 148.714844 L 518.933594 149.289062 C 520.464844 147.628906 521.253906 145.945312 521.304688 144.238281 M 547.269531 123.015625 L 547.269531 123.996094 L 550.476562 123.996094 L 550.476562 140.886719 L 536.15625 123.015625 L 530.917969 123.015625 L 530.917969 123.996094 L 533.929688 123.996094 L 533.929688 144.648438 L 530.917969 144.648438 L 530.917969 145.628906 L 538.636719 145.628906 C 538.636719 145.078125 538.4375 144.765625 538.039062 144.691406 C 537.914062 144.664062 537.789062 144.648438 537.664062 144.648438 L 535.4375 144.648438 L 535.4375 127.207031 L 550.246094 145.816406 L 551.976562 145.441406 L 551.976562 123.996094 L 554.996094 123.996094 L 554.996094 123.015625 Z M 570.101562 146.003906 C 572.042969 146.003906 573.109375 144.835938 573.308594 142.496094 C 573.332031 142.351562 573.34375 142.214844 573.34375 142.089844 L 572.371094 142.046875 C 572.195312 143.882812 571.703125 144.8125 570.894531 144.835938 C 570.242188 144.789062 569.902344 144.140625 569.878906 142.882812 L 569.878906 134.921875 C 569.878906 131.335938 568.082031 129.441406 564.488281 129.234375 L 563.816406 129.234375 C 561.003906 129.234375 559.117188 129.890625 558.160156 131.195312 C 557.859375 131.625 557.710938 132.050781 557.710938 132.476562 C 557.710938 133.253906 558.074219 133.707031 558.800781 133.832031 C 558.925781 133.863281 559.050781 133.875 559.175781 133.875 C 559.757812 133.875 560.183594 133.511719 560.453125 132.785156 C 560.808594 131.851562 561.046875 131.296875 561.171875 131.121094 C 561.648438 130.496094 562.390625 130.183594 563.398438 130.183594 C 565.757812 130.328125 566.976562 131.625 567.058594 134.0625 L 567.058594 136.433594 C 561.148438 136.433594 557.769531 137.664062 556.914062 140.128906 C 556.769531 140.605469 556.695312 141.121094 556.695312 141.671875 C 556.695312 143.582031 557.535156 144.890625 559.21875 145.59375 C 559.894531 145.867188 560.613281 146.003906 561.371094 146.003906 C 563.199219 146.003906 564.742188 145.375 566 144.117188 C 566.449219 143.648438 566.785156 143.148438 567.015625 142.617188 C 567.316406 144.851562 568.34375 145.980469 570.101562 146.003906 M 562.605469 144.503906 C 561.074219 144.503906 560.132812 143.734375 559.78125 142.199219 C 559.707031 141.847656 559.671875 141.457031 559.671875 141.03125 C 559.671875 139.347656 560.636719 138.28125 562.570312 137.835938 C 563.601562 137.605469 565.097656 137.476562 567.058594 137.449219 L 567.058594 140.46875 C 566.675781 142.203125 565.757812 143.421875 564.300781 144.117188 C 563.730469 144.375 563.164062 144.503906 562.605469 144.503906 M 574.289062 129.621094 L 574.289062 130.558594 L 576.925781 130.558594 L 576.925781 141.1875 C 577.101562 144.324219 578.546875 145.945312 581.257812 146.046875 C 583.574219 146.046875 585.019531 144.628906 585.589844 141.792969 L 585.589844 141.714844 L 584.578125 141.527344 C 583.953125 143.609375 583.035156 144.734375 581.820312 144.910156 C 580.46875 144.859375 579.777344 143.894531 579.75 142.011719 L 579.75 130.558594 L 585.589844 130.558594 L 585.589844 129.621094 L 579.75 129.621094 L 579.75 125.242188 L 576.925781 126.039062 L 576.925781 129.621094 Z M 605.195312 144.691406 L 603.308594 144.691406 L 603.308594 129.621094 L 597.386719 129.621094 L 597.386719 130.558594 L 600.476562 130.558594 L 600.476562 138.695312 C 600.476562 140.957031 599.683594 142.613281 598.105469 143.667969 C 597.398438 144.144531 596.671875 144.382812 595.921875 144.382812 C 593.863281 144.382812 592.667969 143.328125 592.339844 141.21875 C 592.289062 140.867188 592.261719 140.492188 592.261719 140.09375 L 592.261719 129.621094 L 586.539062 129.621094 L 586.539062 130.558594 L 589.4375 130.558594 L 589.4375 139.519531 C 589.460938 143.820312 591.257812 145.980469 594.832031 146.003906 C 596.710938 146.003906 598.253906 145.238281 599.460938 143.710938 C 599.917969 143.128906 600.28125 142.492188 600.550781 141.792969 L 600.816406 145.628906 L 606.132812 145.628906 C 606.132812 145.078125 605.945312 144.777344 605.570312 144.726562 C 605.464844 144.703125 605.339844 144.691406 605.195312 144.691406 M 616.726562 144.691406 L 614.003906 144.691406 L 614.003906 137.195312 C 614.003906 134.910156 614.707031 133.074219 616.121094 131.691406 C 616.671875 131.164062 617.132812 130.882812 617.507812 130.855469 C 617.933594 130.855469 618.324219 131.171875 618.675781 131.804688 C 619.082031 132.5 619.460938 132.902344 619.8125 133.003906 C 619.960938 133.054688 620.109375 133.082031 620.265625 133.082031 C 621.015625 133.082031 621.492188 132.71875 621.699219 131.992188 C 621.75 131.835938 621.777344 131.6875 621.777344 131.539062 C 621.777344 130.40625 621.195312 129.714844 620.035156 129.464844 C 619.785156 129.414062 619.542969 129.390625 619.316406 129.390625 C 617.808594 129.390625 616.46875 130.027344 615.292969 131.308594 C 614.734375 131.910156 614.292969 132.589844 613.96875 133.347656 L 613.816406 129.621094 L 608.359375 129.621094 L 608.359375 130.558594 L 611.179688 130.558594 L 611.179688 142.429688 C 611.179688 143.585938 610.851562 144.277344 610.199219 144.503906 C 609.824219 144.628906 609.210938 144.691406 608.359375 144.691406 L 608.359375 145.628906 L 617.664062 145.628906 C 617.664062 145.078125 617.476562 144.777344 617.101562 144.726562 C 616.996094 144.703125 616.871094 144.691406 616.726562 144.691406 M 636.691406 146.003906 C 638.625 146.003906 639.695312 144.835938 639.902344 142.496094 C 639.921875 142.351562 639.933594 142.214844 639.933594 142.089844 L 638.953125 142.046875 C 638.777344 143.882812 638.289062 144.8125 637.484375 144.835938 C 636.832031 144.789062 636.492188 144.140625 636.472656 142.882812 L 636.472656 134.921875 C 636.472656 131.335938 634.675781 129.441406 631.082031 129.234375 L 630.398438 129.234375 C 627.582031 129.234375 625.699219 129.890625 624.753906 131.195312 C 624.449219 131.625 624.300781 132.050781 624.300781 132.476562 C 624.300781 133.253906 624.664062 133.707031 625.390625 133.832031 C 625.515625 133.863281 625.640625 133.875 625.765625 133.875 C 626.339844 133.875 626.765625 133.511719 627.046875 132.785156 C 627.398438 131.851562 627.636719 131.296875 627.761719 131.121094 C 628.238281 130.496094 628.980469 130.183594 629.988281 130.183594 C 632.347656 130.328125 633.566406 131.625 633.636719 134.0625 L 633.636719 136.433594 C 627.734375 136.433594 624.359375 137.664062 623.507812 140.128906 C 623.351562 140.605469 623.273438 141.121094 623.273438 141.671875 C 623.273438 143.582031 624.117188 144.890625 625.800781 145.59375 C 626.484375 145.867188 627.199219 146.003906 627.949219 146.003906 C 629.785156 146.003906 631.332031 145.375 632.578125 144.117188 C 633.035156 143.648438 633.378906 143.148438 633.605469 142.617188 C 633.90625 144.851562 634.9375 145.980469 636.691406 146.003906 M 629.195312 144.503906 C 627.660156 144.503906 626.71875 143.734375 626.371094 142.199219 C 626.292969 141.847656 626.25 141.457031 626.25 141.03125 C 626.25 139.347656 627.21875 138.28125 629.152344 137.835938 C 630.1875 137.605469 631.683594 137.476562 633.636719 137.449219 L 633.636719 140.46875 C 633.261719 142.203125 632.347656 143.421875 630.894531 144.117188 C 630.3125 144.375 629.746094 144.503906 629.195312 144.503906 M 649.050781 144.691406 L 647.023438 144.691406 L 647.023438 121.140625 L 641.367188 121.140625 L 641.367188 122.078125 L 644.1875 122.078125 L 644.1875 142.429688 C 644.1875 143.585938 643.863281 144.277344 643.207031 144.503906 C 642.832031 144.628906 642.21875 144.691406 641.367188 144.691406 L 641.367188 145.628906 L 650 145.628906 C 650 145.078125 649.808594 144.777344 649.425781 144.726562 C 649.332031 144.703125 649.207031 144.691406 649.050781 144.691406 M 659.945312 144.691406 L 657.90625 144.691406 L 657.90625 121.140625 L 652.257812 121.140625 L 652.257812 122.078125 L 655.082031 122.078125 L 655.082031 142.429688 C 655.082031 143.585938 654.753906 144.277344 654.101562 144.503906 C 653.726562 144.628906 653.113281 144.691406 652.257812 144.691406 L 652.257812 145.628906 L 660.882812 145.628906 C 660.882812 145.078125 660.695312 144.777344 660.320312 144.726562 C 660.214844 144.703125 660.089844 144.691406 659.945312 144.691406 M 665.789062 151.625 C 665.382812 151.625 665.082031 151.324219 664.882812 150.722656 C 664.605469 149.964844 664.339844 149.5 664.089844 149.320312 C 663.863281 149.175781 663.597656 149.101562 663.296875 149.101562 C 662.496094 149.101562 662.03125 149.449219 661.90625 150.148438 C 661.878906 150.25 661.863281 150.339844 661.863281 150.414062 C 661.863281 151.367188 662.417969 152.058594 663.527344 152.484375 C 664.027344 152.691406 664.550781 152.792969 665.105469 152.792969 C 667.089844 152.792969 668.808594 151.574219 670.261719 149.132812 C 670.867188 148.15625 671.445312 146.988281 672.003906 145.628906 L 677.582031 131.878906 C 677.832031 131.175781 678.109375 130.769531 678.410156 130.667969 C 678.585938 130.617188 678.785156 130.589844 679.007812 130.589844 C 679.511719 130.589844 679.804688 130.453125 679.878906 130.183594 C 679.929688 130.027344 679.953125 129.839844 679.953125 129.621094 L 674.222656 129.621094 L 674.222656 130.589844 L 676.976562 130.589844 L 672.148438 142.652344 L 666.988281 130.589844 L 669.511719 130.589844 L 669.511719 129.621094 L 662.171875 129.621094 L 662.171875 130.589844 L 664.011719 130.589844 L 670.792969 145.628906 C 669.390625 148.945312 668.070312 150.867188 666.835938 151.394531 C 666.488281 151.550781 666.140625 151.625 665.789062 151.625 M 246.507812 27.382812 L 90.34375 27.382812 C 89.78125 27.378906 89.246094 27.601562 88.847656 28 C 88.449219 28.398438 88.230469 28.933594 88.230469 29.496094 L 88.230469 71.710938 C 88.230469 72.867188 89.175781 73.824219 90.34375 73.824219 L 101.707031 73.824219 L 101.707031 144.597656 C 101.707031 145.769531 102.648438 146.714844 103.820312 146.714844 L 233.046875 146.714844 C 234.214844 146.710938 235.15625 145.765625 235.160156 144.597656 L 235.160156 73.824219 L 246.507812 73.824219 C 247.070312 73.824219 247.605469 73.605469 248.003906 73.207031 C 248.398438 72.8125 248.621094 72.273438 248.621094 71.710938 L 248.621094 29.496094 C 248.625 28.933594 248.402344 28.398438 248.003906 28 C 247.605469 27.601562 247.070312 27.378906 246.507812 27.382812 M 150.164062 142.484375 L 122.15625 142.484375 L 122.15625 90.261719 L 150.164062 90.261719 Z M 230.933594 142.484375 L 154.378906 142.484375 L 154.378906 88.148438 C 154.378906 86.980469 153.433594 86.035156 152.265625 86.03125 L 120.042969 86.03125 C 118.875 86.03125 117.929688 86.992188 117.929688 88.148438 L 117.929688 142.484375 L 105.949219 142.484375 L 105.949219 73.824219 L 230.917969 73.824219 Z M 244.394531 69.597656 L 92.457031 69.597656 L 92.457031 60.757812 L 244.40625 60.757812 Z M 244.394531 56.53125 L 92.457031 56.53125 L 92.457031 44.902344 L 244.40625 44.902344 Z M 244.394531 40.671875 L 92.457031 40.671875 L 92.457031 31.609375 L 244.40625 31.609375 Z M 244.394531 40.671875 " fill-opacity="1" fill-rule="nonzero"/><path fill="#0074d9" d="M 157.910156 135.457031 L 208.816406 135.457031 C 209.371094 135.457031 209.902344 135.234375 210.292969 134.84375 C 210.6875 134.453125 210.90625 133.921875 210.90625 133.367188 L 210.90625 94.242188 C 210.90625 93.6875 210.6875 93.15625 210.292969 92.765625 C 209.902344 92.371094 209.371094 92.152344 208.816406 92.152344 L 157.910156 92.152344 C 157.355469 92.152344 156.824219 92.371094 156.433594 92.765625 C 156.042969 93.15625 155.820312 93.6875 155.820312 94.242188 L 155.820312 133.378906 C 155.820312 134.523438 156.753906 135.46875 157.910156 135.46875 M 160 96.34375 L 206.730469 96.34375 L 206.730469 131.304688 L 160 131.304688 Z M 160 96.34375 " fill-opacity="1" fill-rule="nonzero"/></svg>